Coordinates
version=1
nRows=21
nColumns=38
inDegrees=no

Units are S.I. units (second, meters, Newtons, ...)
If the header above contains a line with 'inDegrees', this indicates whether rotational values are in degrees (yes) or radians (no).

endheader
time	pelvis_tilt	pelvis_list	pelvis_rotation	pelvis_tx	pelvis_ty	pelvis_tz	hip_flexion_r	hip_adduction_r	hip_rotation_r	knee_angle_r	ankle_angle_r	subtalar_angle_r	mtp_angle_r	hip_flexion_l	hip_adduction_l	hip_rotation_l	knee_angle_l	ankle_angle_l	subtalar_angle_l	mtp_angle_l	lumbar_extension	lumbar_bending	lumbar_rotation	arm_flex_r	arm_add_r	arm_rot_r	elbow_flex_r	pro_sup_r	wrist_flex_r	wrist_dev_r	arm_flex_l	arm_add_l	arm_rot_l	elbow_flex_l	pro_sup_l	wrist_flex_l	wrist_dev_l
0.97	0.0577716	0.0171964	0.0139231	0.912939	0.940545	-0.314518	0.50078	-0.0234965	0.00290982	-1.77789	-0.088044	-0.0365291	9.23335e-05	0.039323	0.115811	-0.00112717	-0.699311	0.423392	-0.0492981	0.000189407	-0.364951	-0.0268993	-0.100617	-0.562479	-0.338271	-0.106978	1.72035	1.65182	0.0392753	-0.0202569	-0.055982	-0.462068	0.034231	2.06103	2.22333	-0.00485762	-0.00579529
0.98	0.0477077	0.000610827	0.0229611	0.912762	0.944664	-0.315292	0.547984	-0.0135761	-0.0214601	-1.73441	-0.0717833	-0.0365291	9.23335e-05	-0.00699509	0.0950229	0.00505017	-0.649783	0.388631	-0.0492981	0.000189407	-0.353131	-0.00185943	-0.114085	-0.59503	-0.326774	-0.116513	1.72739	1.6483	0.0392753	-0.0202569	-0.0338226	-0.466206	0.050821	2.08503	2.19068	-0.00485762	-0.00579529
0.99	0.0374491	-0.0169282	0.0312569	0.912951	0.949311	-0.315936	0.589289	-0.0036901	-0.0483451	-1.6789	-0.0571444	-0.0365291	9.23335e-05	-0.0526759	0.0722472	0.00681373	-0.597998	0.339441	-0.0492981	0.000189407	-0.34055	0.0238962	-0.126197	-0.626638	-0.315567	-0.125875	1.73647	1.64296	0.0392753	-0.0202569	-0.0170234	-0.468944	0.065809	2.11038	2.15839	-0.00485762	-0.00579529
1	0.0271517	-0.0350766	0.0378962	0.913474	0.954383	-0.316354	0.624297	0.00718899	-0.0755853	-1.61172	-0.0441853	-0.0365291	9.23335e-05	-0.0970537	0.0480327	0.00351667	-0.545504	0.276569	-0.0492981	0.000189407	-0.327516	0.0495738	-0.13627	-0.656523	-0.304666	-0.134498	1.74595	1.63558	0.0392753	-0.0202569	-0.0052808	-0.470432	0.079072	2.13593	2.12903	-0.00485762	-0.00579529
1.01	0.0168851	-0.0533378	0.0421772	0.914288	0.959743	-0.316463	0.652789	0.0198377	-0.101088	-1.53325	-0.0327585	-0.0365291	9.23335e-05	-0.139409	0.0231762	-0.00485694	-0.493989	0.201755	-0.0492981	0.000189407	-0.314277	0.0743128	-0.143847	-0.68402	-0.294102	-0.141905	1.75459	1.62627	0.0392753	-0.0202569	0.00178237	-0.470826	0.0904439	2.16071	2.10442	-0.00485762	-0.00579529
1.02	0.00663861	-0.071042	0.0437168	0.915332	0.965222	-0.316214	0.674706	0.0346036	-0.122973	-1.44402	-0.022506	-0.0365291	9.23335e-05	-0.178977	-0.00129663	-0.0176111	-0.445288	0.117741	-0.0492981	0.000189407	-0.301019	0.0972139	-0.148792	-0.708621	-0.283941	-0.14775	1.76163	1.61547	0.0392753	-0.0202569	0.00458974	-0.470295	0.0997685	2.18398	2.08564	-0.00485762	-0.00579529
1.03	-0.00358568	-0.0873834	0.0425166	0.916534	0.970616	-0.315603	0.690109	0.0512849	-0.139726	-1.34485	-0.0128956	-0.0365291	9.23335e-05	-0.214993	-0.0242017	-0.0333798	-0.401329	0.028121	-0.0492981	0.000189407	-0.2879	0.117374	-0.151323	-0.729995	-0.274285	-0.151829	1.76675	1.60391	0.0392753	-0.0202569	0.00359125	-0.469033	0.106942	2.20522	2.07313	-0.00485762	-0.00579529
1.04	-0.013708	-0.101473	0.0389672	0.917812	0.975699	-0.314675	0.699122	0.069117	-0.150354	-1.23696	-0.00329098	-0.0365291	9.23335e-05	-0.24679	-0.0443261	-0.0503056	-0.364042	-0.0629465	-0.0492981	0.000189407	-0.27511	0.133952	-0.151992	-0.747976	-0.265269	-0.154078	1.77005	1.59259	0.0392753	-0.0202569	-0.000751298	-0.467259	0.111936	2.22411	2.06692	-0.00485762	-0.00579529
1.05	-0.0235122	-0.112436	0.0337916	0.919089	0.980255	-0.313523	0.701896	0.0868776	-0.154513	-1.1222	0.00694587	-0.0365291	9.23335e-05	-0.273903	-0.0605855	-0.0663415	-0.335237	-0.151156	-0.0492981	0.000189407	-0.262926	0.146252	-0.151588	-0.762545	-0.257037	-0.154557	1.77187	1.5826	0.0392753	-0.0202569	-0.0079745	-0.465218	0.114811	2.24044	2.06662	-0.00485762	-0.00579529
1.06	-0.0326276	-0.119539	0.0279259	0.920311	0.984105	-0.312269	0.698627	0.103096	-0.152578	-1.00305	0.018326	-0.0365291	9.23335e-05	-0.296124	-0.0721867	-0.0796184	-0.31648	-0.232506	-0.0492981	0.000189407	-0.251733	0.153806	-0.15099	-0.773807	-0.249707	-0.153431	1.77273	1.57495	0.0392753	-0.0202569	-0.0176257	-0.463167	0.115717	2.25408	2.07149	-0.00485762	-0.00579529
1.07	-0.0405706	-0.122322	0.0223594	0.921468	0.987114	-0.311045	0.689634	0.116316	-0.145644	-0.882754	0.0310892	-0.0365291	9.23335e-05	-0.313489	-0.0787629	-0.0887822	-0.309011	-0.303692	-0.0492981	0.000189407	-0.241979	0.156453	-0.150998	-0.781961	-0.24335	-0.150948	1.77314	1.5705	0.0392753	-0.0202569	-0.0292779	-0.461351	0.114885	2.26492	2.08043	-0.00485762	-0.00579529
1.08	-0.0467886	-0.120713	0.0179594	0.922588	0.989185	-0.309969	0.675458	0.12536	-0.135423	-0.765162	0.0450728	-0.0365291	9.23335e-05	-0.326188	-0.0804581	-0.0932134	-0.31371	-0.362345	-0.0492981	0.000189407	-0.234091	0.154386	-0.152174	-0.787273	-0.237975	-0.147421	1.77359	1.56982	0.0392753	-0.0202569	-0.0425451	-0.459978	0.112607	2.27281	2.09205	-0.00485762	-0.00579529
1.09	-0.0508242	-0.115062	0.01534	0.923702	0.990229	-0.309124	0.656906	0.129572	-0.124029	-0.654547	0.0596295	-0.0365291	9.23335e-05	-0.334517	-0.0779467	-0.0930848	-0.331089	-0.407137	-0.0492981	0.000189407	-0.228419	0.148193	-0.154716	-0.790047	-0.233547	-0.143207	1.77444	1.57309	0.0392753	-0.0202569	-0.0570911	-0.459188	0.109202	2.27755	2.1049	-0.00485762	-0.00579529
1.1	-0.0523796	-0.106148	0.0147541	0.924876	0.990282	-0.308542	0.635045	0.128964	-0.113657	-0.555256	0.073623	-0.0365291	9.23335e-05	-0.338776	-0.0723867	-0.0892689	-0.361311	-0.437736	-0.0492981	0.000189407	-0.225178	0.138821	-0.1584	-0.790597	-0.230017	-0.138693	1.77597	1.58005	0.0392753	-0.0202569	-0.0726252	-0.45903	0.104993	2.27889	2.11759	-0.00485762	-0.00579529
1.11	-0.0513472	-0.095102	0.0160614	0.926155	0.989397	-0.308204	0.61115	0.124249	-0.106197	-0.471299	0.0855322	-0.0365291	9.23335e-05	-0.339206	-0.0653093	-0.0831604	-0.404225	-0.454708	-0.0492981	0.000189407	-0.224413	0.127507	-0.162583	-0.789222	-0.227354	-0.134281	1.77834	1.59004	0.0392753	-0.0202569	-0.0888849	-0.459443	0.100286	2.27658	2.12899	-0.00485762	-0.00579529
1.12	-0.0478126	-0.0832888	0.0187626	0.927549	0.987618	-0.308046	0.586584	0.116756	-0.102885	-0.405948	0.0936826	-0.0365291	9.23335e-05	-0.335953	-0.0584728	-0.0764751	-0.459382	-0.459407	-0.0492981	0.000189407	-0.226014	0.115658	-0.16627	-0.786172	-0.225588	-0.130369	1.78162	1.60204	0.0392753	-0.0202569	-0.105614	-0.460258	0.0953506	2.27038	2.13825	-0.00485762	-0.00579529
1.13	-0.042019	-0.072158	0.022089	0.929029	0.984968	-0.307962	0.562675	0.108245	-0.104091	-0.36144	0.0966079	-0.0365291	9.23335e-05	-0.329084	-0.0537002	-0.0710472	-0.526042	-0.453844	-0.0492981	0.000189407	-0.229775	0.104707	-0.168231	-0.781617	-0.224821	-0.127312	1.78579	1.61478	0.0392753	-0.0202569	-0.122547	-0.461213	0.0904158	2.26013	2.14493	-0.00485762	-0.00579529
1.14	-0.0343084	-0.0630882	0.0251288	0.930531	0.981445	-0.307828	0.540599	0.100658	-0.109275	-0.33882	0.09351	-0.0365291	9.23335e-05	-0.318616	-0.0527062	-0.0686135	-0.603165	-0.440495	-0.0492981	0.000189407	-0.23547	0.0959646	-0.167154	-0.775595	-0.225242	-0.125364	1.79071	1.62678	0.0392753	-0.0202569	-0.139404	-0.461989	0.0856512	2.24585	2.14895	-0.00485762	-0.00579529
1.15	-0.0250585	-0.0572449	0.0269695	0.931963	0.977021	-0.307524	0.521281	0.0958481	-0.117139	-0.337939	0.0847291	-0.0365291	9.23335e-05	-0.304562	-0.0569128	-0.070557	-0.689403	-0.422019	-0.0492981	0.000189407	-0.242929	0.0904753	-0.161821	-0.767964	-0.227108	-0.124623	1.79612	1.63659	0.0392753	-0.0202569	-0.155915	-0.462245	0.0811436	2.22779	2.15061	-0.00485762	-0.00579529
1.16	-0.0146391	-0.0554493	0.0268339	0.93321	0.97166	-0.306953	0.505319	0.095323	-0.125892	-0.357561	0.0720966	-0.0365291	9.23335e-05	-0.286947	-0.0672395	-0.0776374	-0.783099	-0.40093	-0.0492981	0.000189407	-0.252087	0.088898	-0.151294	-0.758359	-0.230727	-0.124949	1.80158	1.64294	0.0392753	-0.0202569	-0.171855	-0.461653	0.0768573	2.20644	2.15054	-0.00485762	-0.00579529
1.17	-0.00338016	-0.0580727	0.0242058	0.934158	0.96549	-0.306082	0.492881	0.100038	-0.133609	-0.395441	0.0589231	-0.0365291	9.23335e-05	-0.265776	-0.0839106	-0.0897335	-0.882332	-0.379283	-0.0492981	0.000189407	-0.262965	0.091436	-0.135095	-0.746171	-0.236426	-0.125918	1.80647	1.64489	0.0392753	-0.0202569	-0.187112	-0.459923	0.0725939	2.18256	2.14961	-0.00485762	-0.00579529
